<svg id="Layer_1" data-name="Layer 1" xmlns="http://www.w3.org/2000/svg" viewBox="0 0 362.05 355.21"><defs><style>.cls-1{fill:#343637;}.cls-2{fill:#fff;}</style></defs><path class="cls-1" d="M384.22,433.6a3.81,3.81,0,0,1-2-.56L256,356.27,130.36,433a3.87,3.87,0,0,1-5.68-4.53l46.25-137.4-94.55-77.9a3.86,3.86,0,0,1,2.25-6.84L199,200,252.47,80.68a3.87,3.87,0,0,1,7.06,0L313,200l120.39,6.37a3.86,3.86,0,0,1,2.25,6.84L341.08,291.1l46.8,137.4a3.86,3.86,0,0,1-3.66,5.1Z" transform="translate(-74.97 -78.4)"/><polygon class="cls-1" points="181.03 9.59 181.03 183.27 128.16 127.6 181.03 9.59"/><polygon class="cls-1" points="10 133.85 181.03 183.27 103.2 210.64 10 133.85"/><polygon class="cls-1" points="181.03 183.27 181.03 270.6 57.65 345.99 181.03 183.27"/><polygon class="cls-1" points="304.95 345.99 181.03 183.27 258.85 210.64 304.95 345.99"/><polygon class="cls-1" points="352.05 133.85 181.03 183.27 233.89 127.6 352.05 133.85"/><polygon class="cls-2" points="181.03 9.59 181.03 183.26 233.9 127.6 181.03 9.59"/><polygon class="cls-2" points="181.03 183.26 258.85 210.65 352.05 133.85 181.03 183.26"/><polygon class="cls-2" points="181.03 183.26 304.95 345.99 181.03 270.6 181.03 183.26"/><polygon class="cls-2" points="181.03 183.26 103.2 210.65 57.65 345.99 181.03 183.26"/><polygon class="cls-2" points="128.16 127.6 181.03 183.26 10 133.85 128.16 127.6"/></svg>